<svg width="16" height="16" viewBox="0 0 16 16" fill="none" xmlns="http://www.w3.org/2000/svg">
<path fill-rule="evenodd" clip-rule="evenodd" d="M16 0.75C16 1.16421 15.6642 1.5 15.25 1.5L0.75 1.5C0.335787 1.5 0 1.16421 0 0.749998C0 0.335785 0.335787 0 0.75 0H15.25C15.6642 0 16 0.335786 16 0.75ZM16 7.75C16 8.16421 15.6642 8.5 15.25 8.5L0.75 8.5C0.335787 8.5 0 8.16421 0 7.75C0 7.33578 0.335787 7 0.75 7L15.25 7C15.6642 7 16 7.33579 16 7.75ZM15.25 15.5C15.6642 15.5 16 15.1642 16 14.75C16 14.3358 15.6642 14 15.25 14L0.75 14C0.335787 14 0 14.3358 0 14.75C0 15.1642 0.335787 15.5 0.75 15.5L15.25 15.5Z" fill="#008ECC"/>
</svg>
